<mxfile host="app.diagrams.net" agent="Mozilla/5.0 (Macintosh; Intel Mac OS X 10_15_7) AppleWebKit/537.36 (KHTML, like Gecko) Chrome/130.0.0.0 Safari/537.36" version="24.8.0">
  <diagram name="Page-1" id="T4AhWtF0UpHQR5BLpfcj">
    <mxGraphModel dx="984" dy="594" grid="1" gridSize="10" guides="1" tooltips="1" connect="1" arrows="1" fold="1" page="1" pageScale="1" pageWidth="1169" pageHeight="827" math="0" shadow="0">
      <root>
        <mxCell id="0" />
        <mxCell id="1" parent="0" />
        <mxCell id="J_w5P_KsoQOPrdJzxvRS-1" value="&lt;u&gt;:Administrator&lt;/u&gt;" style="shape=umlLifeline;perimeter=lifelinePerimeter;whiteSpace=wrap;html=1;container=1;dropTarget=0;collapsible=0;recursiveResize=0;outlineConnect=0;portConstraint=eastwest;newEdgeStyle={&quot;curved&quot;:0,&quot;rounded&quot;:0};" vertex="1" parent="1">
          <mxGeometry x="130" y="80" width="100" height="300" as="geometry" />
        </mxCell>
        <mxCell id="J_w5P_KsoQOPrdJzxvRS-2" value="&lt;u&gt;:System&lt;/u&gt;" style="shape=umlLifeline;perimeter=lifelinePerimeter;whiteSpace=wrap;html=1;container=1;dropTarget=0;collapsible=0;recursiveResize=0;outlineConnect=0;portConstraint=eastwest;newEdgeStyle={&quot;curved&quot;:0,&quot;rounded&quot;:0};" vertex="1" parent="1">
          <mxGeometry x="340" y="80" width="100" height="300" as="geometry" />
        </mxCell>
        <mxCell id="J_w5P_KsoQOPrdJzxvRS-3" value="createOffering&lt;div&gt;(mode, activity, start, end, day, loc)&lt;/div&gt;" style="html=1;verticalAlign=bottom;endArrow=block;curved=0;rounded=0;" edge="1" parent="1">
          <mxGeometry width="80" relative="1" as="geometry">
            <mxPoint x="179.5" y="160" as="sourcePoint" />
            <mxPoint x="389.5" y="160" as="targetPoint" />
          </mxGeometry>
        </mxCell>
        <mxCell id="J_w5P_KsoQOPrdJzxvRS-4" value="[valid] offer" style="html=1;verticalAlign=bottom;endArrow=open;dashed=1;endSize=8;curved=0;rounded=0;" edge="1" parent="1" source="J_w5P_KsoQOPrdJzxvRS-2" target="J_w5P_KsoQOPrdJzxvRS-1">
          <mxGeometry relative="1" as="geometry">
            <mxPoint x="380" y="229.5" as="sourcePoint" />
            <mxPoint x="300" y="229.5" as="targetPoint" />
          </mxGeometry>
        </mxCell>
        <mxCell id="J_w5P_KsoQOPrdJzxvRS-5" value="[invalid] error" style="html=1;verticalAlign=bottom;endArrow=open;dashed=1;endSize=8;curved=0;rounded=0;" edge="1" parent="1" target="J_w5P_KsoQOPrdJzxvRS-1">
          <mxGeometry x="-0.0026" relative="1" as="geometry">
            <mxPoint x="340" y="230" as="sourcePoint" />
            <mxPoint x="270" y="260" as="targetPoint" />
            <Array as="points">
              <mxPoint x="340" y="260" />
            </Array>
            <mxPoint as="offset" />
          </mxGeometry>
        </mxCell>
        <mxCell id="J_w5P_KsoQOPrdJzxvRS-6" value="exit" style="html=1;verticalAlign=bottom;endArrow=block;curved=0;rounded=0;" edge="1" parent="1" target="J_w5P_KsoQOPrdJzxvRS-2">
          <mxGeometry width="80" relative="1" as="geometry">
            <mxPoint x="180" y="310" as="sourcePoint" />
            <mxPoint x="260" y="310" as="targetPoint" />
          </mxGeometry>
        </mxCell>
      </root>
    </mxGraphModel>
  </diagram>
</mxfile>
